<mxfile host="app.diagrams.net" modified="2021-04-29T15:17:27.805Z" agent="5.0 (Windows NT 10.0; Win64; x64) AppleWebKit/537.36 (KHTML, like Gecko) Chrome/87.0.4280.141 Safari/537.36 OPR/73.0.3856.438" etag="W2mNCEfGAhfTe65f6RV3" version="14.6.9" type="github">
  <diagram id="36-0CbIe05TsGABK2UAy" name="Page-1">
    <mxGraphModel dx="1381" dy="772" grid="1" gridSize="10" guides="1" tooltips="1" connect="1" arrows="1" fold="1" page="1" pageScale="1" pageWidth="827" pageHeight="1169" math="0" shadow="0">
      <root>
        <mxCell id="0" />
        <mxCell id="1" parent="0" />
        <mxCell id="JTOWlMd23mhVKSaYU44d-1" value="&lt;p style=&quot;margin: 0px ; margin-top: 4px ; margin-left: 5px ; text-align: left&quot;&gt;&lt;b&gt;BDD Arroseur automatisé&lt;br&gt;&lt;/b&gt;&lt;/p&gt;" style="html=1;shape=mxgraph.sysml.package;overflow=fill;labelX=158;align=left;spacingLeft=5;verticalAlign=top;spacingTop=-3;" parent="1" vertex="1">
          <mxGeometry x="29" y="20" width="911" height="680" as="geometry" />
        </mxCell>
        <mxCell id="JTOWlMd23mhVKSaYU44d-3" value="Arroseur auto." style="strokeColor=inherit;fillColor=inherit;gradientColor=inherit;shape=rect;fontStyle=1;html=1;whiteSpace=wrap;align=center;" parent="1" vertex="1">
          <mxGeometry x="350" y="110" width="100" height="50" as="geometry" />
        </mxCell>
        <mxCell id="JTOWlMd23mhVKSaYU44d-5" value="" style="strokeColor=inherit;fillColor=inherit;gradientColor=inherit;align=right;html=1;verticalAlign=bottom;endArrow=none;startArrow=diamondThin;startSize=14;startFill=1;edgeStyle=none;endFill=0;labelBackgroundColor=none;exitX=0.5;exitY=1;exitDx=0;exitDy=0;jumpStyle=none;sketch=0;" parent="1" source="JTOWlMd23mhVKSaYU44d-3" target="JTOWlMd23mhVKSaYU44d-4" edge="1">
          <mxGeometry x="1" relative="1" as="geometry" />
        </mxCell>
        <mxCell id="JTOWlMd23mhVKSaYU44d-7" value="0..*" style="resizable=0;html=1;align=right;verticalAlign=top;labelBackgroundColor=none;fontSize=10" parent="JTOWlMd23mhVKSaYU44d-5" connectable="0" vertex="1">
          <mxGeometry x="1" relative="1" as="geometry" />
        </mxCell>
        <mxCell id="JTOWlMd23mhVKSaYU44d-4" value="Ensemble Controlleur" style="strokeColor=inherit;fillColor=inherit;gradientColor=inherit;shape=rect;fontStyle=1;html=1;whiteSpace=wrap;align=center;" parent="1" vertex="1">
          <mxGeometry x="180" y="200" width="100" height="50" as="geometry" />
        </mxCell>
        <mxCell id="JTOWlMd23mhVKSaYU44d-8" value="&lt;div&gt;1&lt;/div&gt;" style="text;html=1;align=center;verticalAlign=middle;resizable=0;points=[];autosize=1;" parent="1" vertex="1">
          <mxGeometry x="220" y="180" width="20" height="20" as="geometry" />
        </mxCell>
        <mxCell id="JTOWlMd23mhVKSaYU44d-9" value="Électrovanne" style="strokeColor=inherit;fillColor=inherit;gradientColor=inherit;shape=rect;fontStyle=1;html=1;whiteSpace=wrap;align=center;" parent="1" vertex="1">
          <mxGeometry x="350" y="200" width="100" height="50" as="geometry" />
        </mxCell>
        <mxCell id="JTOWlMd23mhVKSaYU44d-11" value="" style="strokeColor=inherit;fillColor=inherit;gradientColor=inherit;align=right;html=1;verticalAlign=bottom;endArrow=none;startArrow=diamondThin;startSize=14;startFill=1;edgeStyle=none;endFill=0;labelBackgroundColor=none;exitX=0.5;exitY=1;exitDx=0;exitDy=0;jumpStyle=none;sketch=0;entryX=0.5;entryY=0;entryDx=0;entryDy=0;" parent="1" source="JTOWlMd23mhVKSaYU44d-3" target="JTOWlMd23mhVKSaYU44d-9" edge="1">
          <mxGeometry x="1" relative="1" as="geometry">
            <mxPoint x="410" y="170" as="sourcePoint" />
            <mxPoint x="250" y="219.52380952380952" as="targetPoint" />
          </mxGeometry>
        </mxCell>
        <mxCell id="JTOWlMd23mhVKSaYU44d-13" value="&lt;div&gt;2&lt;/div&gt;" style="text;html=1;align=center;verticalAlign=middle;resizable=0;points=[];autosize=1;" parent="1" vertex="1">
          <mxGeometry x="370" y="180" width="20" height="20" as="geometry" />
        </mxCell>
        <mxCell id="JTOWlMd23mhVKSaYU44d-14" value="Capteurs" style="strokeColor=inherit;fillColor=inherit;gradientColor=inherit;shape=rect;fontStyle=1;html=1;whiteSpace=wrap;align=center;" parent="1" vertex="1">
          <mxGeometry x="550" y="200" width="100" height="50" as="geometry" />
        </mxCell>
        <mxCell id="JTOWlMd23mhVKSaYU44d-15" value="" style="strokeColor=inherit;fillColor=inherit;gradientColor=inherit;align=right;html=1;verticalAlign=bottom;endArrow=none;startArrow=diamondThin;startSize=14;startFill=1;edgeStyle=none;endFill=0;labelBackgroundColor=none;exitX=0.5;exitY=1;exitDx=0;exitDy=0;jumpStyle=none;sketch=0;entryX=0.5;entryY=0;entryDx=0;entryDy=0;" parent="1" source="JTOWlMd23mhVKSaYU44d-3" target="JTOWlMd23mhVKSaYU44d-14" edge="1">
          <mxGeometry x="1" relative="1" as="geometry">
            <mxPoint x="650" y="120" as="sourcePoint" />
            <mxPoint x="490" y="169.52380952380952" as="targetPoint" />
          </mxGeometry>
        </mxCell>
        <mxCell id="JTOWlMd23mhVKSaYU44d-16" value="" style="resizable=0;html=1;align=right;verticalAlign=top;labelBackgroundColor=none;fontSize=10" parent="JTOWlMd23mhVKSaYU44d-15" connectable="0" vertex="1">
          <mxGeometry x="1" relative="1" as="geometry" />
        </mxCell>
        <mxCell id="JTOWlMd23mhVKSaYU44d-17" value="4" style="text;html=1;align=center;verticalAlign=middle;resizable=0;points=[];autosize=1;" parent="1" vertex="1">
          <mxGeometry x="530" y="180" width="20" height="20" as="geometry" />
        </mxCell>
        <mxCell id="JTOWlMd23mhVKSaYU44d-20" value="Capteur Humidité Sol" style="strokeColor=inherit;fillColor=inherit;gradientColor=inherit;shape=rect;fontStyle=1;html=1;whiteSpace=wrap;align=center;" parent="1" vertex="1">
          <mxGeometry x="470" y="340" width="100" height="50" as="geometry" />
        </mxCell>
        <mxCell id="JTOWlMd23mhVKSaYU44d-21" value="&lt;div&gt;Capteur Humidité /&lt;/div&gt;&lt;div&gt;Température Air&lt;br&gt;&lt;/div&gt;" style="strokeColor=inherit;fillColor=inherit;gradientColor=inherit;shape=rect;fontStyle=1;html=1;whiteSpace=wrap;align=center;" parent="1" vertex="1">
          <mxGeometry x="580" y="340" width="100" height="50" as="geometry" />
        </mxCell>
        <mxCell id="JTOWlMd23mhVKSaYU44d-22" value="Capteur Pression Entrée Vanne" style="strokeColor=inherit;fillColor=inherit;gradientColor=inherit;shape=rect;fontStyle=1;html=1;whiteSpace=wrap;align=center;" parent="1" vertex="1">
          <mxGeometry x="690" y="340" width="100" height="50" as="geometry" />
        </mxCell>
        <mxCell id="JTOWlMd23mhVKSaYU44d-23" value="Capteur Pression Sortie Vanne" style="strokeColor=inherit;fillColor=inherit;gradientColor=inherit;shape=rect;fontStyle=1;html=1;whiteSpace=wrap;align=center;" parent="1" vertex="1">
          <mxGeometry x="796" y="340" width="100" height="50" as="geometry" />
        </mxCell>
        <mxCell id="JTOWlMd23mhVKSaYU44d-24" value="" style="strokeColor=inherit;fillColor=inherit;gradientColor=inherit;align=right;html=1;verticalAlign=bottom;endArrow=none;startArrow=diamondThin;startSize=14;startFill=1;edgeStyle=none;endFill=0;labelBackgroundColor=none;exitX=0;exitY=1;exitDx=0;exitDy=0;jumpStyle=none;sketch=0;entryX=0.5;entryY=0;entryDx=0;entryDy=0;" parent="1" source="JTOWlMd23mhVKSaYU44d-14" target="JTOWlMd23mhVKSaYU44d-20" edge="1">
          <mxGeometry x="1" relative="1" as="geometry">
            <mxPoint x="510" y="260" as="sourcePoint" />
            <mxPoint x="620" y="300" as="targetPoint" />
          </mxGeometry>
        </mxCell>
        <mxCell id="JTOWlMd23mhVKSaYU44d-25" value="" style="resizable=0;html=1;align=right;verticalAlign=top;labelBackgroundColor=none;fontSize=10" parent="JTOWlMd23mhVKSaYU44d-24" connectable="0" vertex="1">
          <mxGeometry x="1" relative="1" as="geometry" />
        </mxCell>
        <mxCell id="JTOWlMd23mhVKSaYU44d-26" value="" style="strokeColor=inherit;fillColor=inherit;gradientColor=inherit;align=right;html=1;verticalAlign=bottom;endArrow=none;startArrow=diamondThin;startSize=14;startFill=1;edgeStyle=none;endFill=0;labelBackgroundColor=none;exitX=0.25;exitY=1;exitDx=0;exitDy=0;jumpStyle=none;sketch=0;entryX=0.5;entryY=0;entryDx=0;entryDy=0;" parent="1" source="JTOWlMd23mhVKSaYU44d-14" target="JTOWlMd23mhVKSaYU44d-21" edge="1">
          <mxGeometry x="1" relative="1" as="geometry">
            <mxPoint x="580" y="250" as="sourcePoint" />
            <mxPoint x="590" y="340" as="targetPoint" />
          </mxGeometry>
        </mxCell>
        <mxCell id="JTOWlMd23mhVKSaYU44d-27" value="" style="resizable=0;html=1;align=right;verticalAlign=top;labelBackgroundColor=none;fontSize=10" parent="JTOWlMd23mhVKSaYU44d-26" connectable="0" vertex="1">
          <mxGeometry x="1" relative="1" as="geometry" />
        </mxCell>
        <mxCell id="JTOWlMd23mhVKSaYU44d-28" value="" style="strokeColor=inherit;fillColor=inherit;gradientColor=inherit;align=right;html=1;verticalAlign=bottom;endArrow=none;startArrow=diamondThin;startSize=14;startFill=1;edgeStyle=none;endFill=0;labelBackgroundColor=none;exitX=0.5;exitY=1;exitDx=0;exitDy=0;jumpStyle=none;sketch=0;entryX=0.5;entryY=0;entryDx=0;entryDy=0;" parent="1" source="JTOWlMd23mhVKSaYU44d-14" target="JTOWlMd23mhVKSaYU44d-22" edge="1">
          <mxGeometry x="1" relative="1" as="geometry">
            <mxPoint x="600" y="220" as="sourcePoint" />
            <mxPoint x="680" y="310" as="targetPoint" />
          </mxGeometry>
        </mxCell>
        <mxCell id="JTOWlMd23mhVKSaYU44d-29" value="" style="resizable=0;html=1;align=right;verticalAlign=top;labelBackgroundColor=none;fontSize=10" parent="JTOWlMd23mhVKSaYU44d-28" connectable="0" vertex="1">
          <mxGeometry x="1" relative="1" as="geometry" />
        </mxCell>
        <mxCell id="JTOWlMd23mhVKSaYU44d-30" value="" style="strokeColor=inherit;fillColor=inherit;gradientColor=inherit;align=right;html=1;verticalAlign=bottom;endArrow=none;startArrow=diamondThin;startSize=14;startFill=1;edgeStyle=none;endFill=0;labelBackgroundColor=none;exitX=1;exitY=1;exitDx=0;exitDy=0;jumpStyle=none;sketch=0;entryX=0.5;entryY=0;entryDx=0;entryDy=0;" parent="1" source="JTOWlMd23mhVKSaYU44d-14" target="JTOWlMd23mhVKSaYU44d-23" edge="1">
          <mxGeometry x="1" relative="1" as="geometry">
            <mxPoint x="520" y="260" as="sourcePoint" />
            <mxPoint x="750" y="350" as="targetPoint" />
          </mxGeometry>
        </mxCell>
        <mxCell id="JTOWlMd23mhVKSaYU44d-31" value="" style="resizable=0;html=1;align=right;verticalAlign=top;labelBackgroundColor=none;fontSize=10" parent="JTOWlMd23mhVKSaYU44d-30" connectable="0" vertex="1">
          <mxGeometry x="1" relative="1" as="geometry" />
        </mxCell>
        <mxCell id="JTOWlMd23mhVKSaYU44d-32" value="&lt;div&gt;1&lt;/div&gt;" style="text;html=1;align=center;verticalAlign=middle;resizable=0;points=[];autosize=1;" parent="1" vertex="1">
          <mxGeometry x="550" y="320" width="20" height="20" as="geometry" />
        </mxCell>
        <mxCell id="JTOWlMd23mhVKSaYU44d-34" value="&lt;div&gt;1&lt;/div&gt;" style="text;html=1;align=center;verticalAlign=middle;resizable=0;points=[];autosize=1;" parent="1" vertex="1">
          <mxGeometry x="660" y="320" width="20" height="20" as="geometry" />
        </mxCell>
        <mxCell id="JTOWlMd23mhVKSaYU44d-35" value="&lt;div&gt;1&lt;/div&gt;" style="text;html=1;align=center;verticalAlign=middle;resizable=0;points=[];autosize=1;" parent="1" vertex="1">
          <mxGeometry x="770" y="320" width="20" height="20" as="geometry" />
        </mxCell>
        <mxCell id="JTOWlMd23mhVKSaYU44d-36" value="&lt;div&gt;1&lt;/div&gt;" style="text;html=1;align=center;verticalAlign=middle;resizable=0;points=[];autosize=1;" parent="1" vertex="1">
          <mxGeometry x="876" y="320" width="20" height="20" as="geometry" />
        </mxCell>
        <mxCell id="JTOWlMd23mhVKSaYU44d-37" value="Arduino UNO" style="strokeColor=inherit;fillColor=inherit;gradientColor=inherit;shape=rect;fontStyle=1;html=1;whiteSpace=wrap;align=center;" parent="1" vertex="1">
          <mxGeometry x="70" y="335" width="100" height="50" as="geometry" />
        </mxCell>
        <mxCell id="JTOWlMd23mhVKSaYU44d-38" value="" style="strokeColor=inherit;fillColor=inherit;gradientColor=inherit;align=right;html=1;verticalAlign=bottom;endArrow=none;startArrow=diamondThin;startSize=14;startFill=1;edgeStyle=none;endFill=0;labelBackgroundColor=none;exitX=0;exitY=1;exitDx=0;exitDy=0;jumpStyle=none;sketch=0;entryX=0.5;entryY=0;entryDx=0;entryDy=0;" parent="1" source="JTOWlMd23mhVKSaYU44d-4" target="JTOWlMd23mhVKSaYU44d-37" edge="1">
          <mxGeometry x="1" relative="1" as="geometry">
            <mxPoint x="370" y="320" as="sourcePoint" />
            <mxPoint x="210" y="369.5238095238095" as="targetPoint" />
          </mxGeometry>
        </mxCell>
        <mxCell id="JTOWlMd23mhVKSaYU44d-40" value="Shield Bluetooth Seeeduino v2.0" style="strokeColor=inherit;fillColor=inherit;gradientColor=inherit;shape=rect;fontStyle=1;html=1;whiteSpace=wrap;align=center;" parent="1" vertex="1">
          <mxGeometry x="180" y="335" width="100" height="50" as="geometry" />
        </mxCell>
        <mxCell id="JTOWlMd23mhVKSaYU44d-41" value="" style="strokeColor=inherit;fillColor=inherit;gradientColor=inherit;align=right;html=1;verticalAlign=bottom;endArrow=none;startArrow=diamondThin;startSize=14;startFill=1;edgeStyle=none;endFill=0;labelBackgroundColor=none;exitX=0.5;exitY=1;exitDx=0;exitDy=0;jumpStyle=none;sketch=0;entryX=0.5;entryY=0;entryDx=0;entryDy=0;" parent="1" source="JTOWlMd23mhVKSaYU44d-4" target="JTOWlMd23mhVKSaYU44d-40" edge="1">
          <mxGeometry x="1" relative="1" as="geometry">
            <mxPoint x="300" y="250" as="sourcePoint" />
            <mxPoint x="320" y="369.5238095238095" as="targetPoint" />
          </mxGeometry>
        </mxCell>
        <mxCell id="CFQobQhaT9exYFnwzprk-1" value="&lt;div&gt;1&lt;/div&gt;" style="text;html=1;align=center;verticalAlign=middle;resizable=0;points=[];autosize=1;" parent="1" vertex="1">
          <mxGeometry x="150" y="315" width="20" height="20" as="geometry" />
        </mxCell>
        <mxCell id="CFQobQhaT9exYFnwzprk-2" value="&lt;div&gt;1&lt;/div&gt;" style="text;html=1;align=center;verticalAlign=middle;resizable=0;points=[];autosize=1;" parent="1" vertex="1">
          <mxGeometry x="260" y="315" width="20" height="20" as="geometry" />
        </mxCell>
        <mxCell id="CFQobQhaT9exYFnwzprk-3" value="Shield Iduino" style="strokeColor=inherit;fillColor=inherit;gradientColor=inherit;shape=rect;fontStyle=1;html=1;whiteSpace=wrap;align=center;" parent="1" vertex="1">
          <mxGeometry x="290" y="335" width="100" height="50" as="geometry" />
        </mxCell>
        <mxCell id="CFQobQhaT9exYFnwzprk-4" value="" style="strokeColor=inherit;fillColor=inherit;gradientColor=inherit;align=right;html=1;verticalAlign=bottom;endArrow=none;startArrow=diamondThin;startSize=14;startFill=1;edgeStyle=none;endFill=0;labelBackgroundColor=none;exitX=1;exitY=1;exitDx=0;exitDy=0;jumpStyle=none;sketch=0;entryX=0.5;entryY=0;entryDx=0;entryDy=0;" parent="1" source="JTOWlMd23mhVKSaYU44d-4" target="CFQobQhaT9exYFnwzprk-3" edge="1">
          <mxGeometry x="1" relative="1" as="geometry">
            <mxPoint x="325" y="250" as="sourcePoint" />
            <mxPoint x="430" y="369.5238095238095" as="targetPoint" />
          </mxGeometry>
        </mxCell>
        <mxCell id="CFQobQhaT9exYFnwzprk-5" value="&lt;div&gt;1&lt;/div&gt;" style="text;html=1;align=center;verticalAlign=middle;resizable=0;points=[];autosize=1;" parent="1" vertex="1">
          <mxGeometry x="370" y="315" width="20" height="20" as="geometry" />
        </mxCell>
      </root>
    </mxGraphModel>
  </diagram>
</mxfile>
